<svg xmlns="http://www.w3.org/2000/svg" xmlns:xlink="http://www.w3.org/1999/xlink" contentStyleType="text/css" height="408px" preserveAspectRatio="none" style="width:903px;height:408px;background:#FFFFFF;" version="1.1" viewBox="0 0 903 408" width="903px" zoomAndPan="magnify"><defs/><g><!--cluster s1--><g id="cluster_s1"><rect fill="none" height="395" rx="2.5" ry="2.5" style="stroke:#444444;stroke-width:1.0;stroke-dasharray:7.0,7.0;" width="890" x="7" y="7"/><text fill="#444444" font-family="sans-serif" font-size="16" font-weight="bold" lengthAdjust="spacing" textLength="59" x="422.5" y="23.8516">Server</text><text fill="#444444" font-family="sans-serif" font-size="12" font-weight="bold" lengthAdjust="spacing" textLength="80" x="412" y="38.7637">[Container]</text></g><!--cluster s2--><g id="cluster_s2"><rect fill="none" height="179" rx="2.5" ry="2.5" style="stroke:#444444;stroke-width:1.0;stroke-dasharray:7.0,7.0;" width="515" x="31" y="146"/><text fill="#444444" font-family="sans-serif" font-size="16" font-weight="bold" lengthAdjust="spacing" textLength="145" x="216" y="162.8516">Data Controllers</text><text fill="#444444" font-family="sans-serif" font-size="12" font-weight="bold" lengthAdjust="spacing" textLength="80" x="248.5" y="177.7637">[Container]</text></g><!--cluster s3--><g id="cluster_s3"><rect fill="none" height="253" rx="2.5" ry="2.5" style="stroke:#444444;stroke-width:1.0;stroke-dasharray:7.0,7.0;" width="200" x="673" y="66"/><text fill="#444444" font-family="sans-serif" font-size="16" font-weight="bold" lengthAdjust="spacing" textLength="117" x="714.5" y="82.8516">Data Indexes</text><text fill="#444444" font-family="sans-serif" font-size="12" font-weight="bold" lengthAdjust="spacing" textLength="80" x="733" y="97.7637">[Container]</text></g><!--entity d_persist--><g id="elem_d_persist"><path d="M731.5,348.19 C731.5,338.19 773,338.19 773,338.19 C773,338.19 814.5,338.19 814.5,348.19 L814.5,375.815 C814.5,385.815 773,385.815 773,385.815 C773,385.815 731.5,385.815 731.5,375.815 L731.5,348.19 " fill="#85BBF0" style="stroke:#78A8D8;stroke-width:0.5;"/><path d="M731.5,348.19 C731.5,358.19 773,358.19 773,358.19 C773,358.19 814.5,358.19 814.5,348.19 " fill="none" style="stroke:#78A8D8;stroke-width:0.5;"/><text fill="#000000" font-family="sans-serif" font-size="16" font-weight="bold" lengthAdjust="spacing" textLength="63" x="741.5" y="377.0416">Persist</text></g><!--entity dm_read--><g id="elem_dm_read"><rect fill="#85BBF0" height="38.625" rx="2.5" ry="2.5" style="stroke:#78A8D8;stroke-width:0.5;" width="213" x="47" y="270.69"/><text fill="#000000" font-family="sans-serif" font-size="16" font-weight="bold" lengthAdjust="spacing" textLength="41" x="57" y="295.5416">Data</text><text fill="#000000" font-family="sans-serif" font-size="16" font-weight="bold" lengthAdjust="spacing" textLength="6" x="98" y="295.5416"> </text><text fill="#000000" font-family="sans-serif" font-size="16" font-weight="bold" lengthAdjust="spacing" textLength="77" x="104" y="295.5416">Manager</text><text fill="#000000" font-family="sans-serif" font-size="16" font-weight="bold" lengthAdjust="spacing" textLength="6" x="181" y="295.5416"> </text><text fill="#000000" font-family="sans-serif" font-size="16" font-weight="bold" lengthAdjust="spacing" textLength="63" x="187" y="295.5416">Reader</text></g><!--entity dm_write--><g id="elem_dm_write"><rect fill="#85BBF0" height="38.625" rx="2.5" ry="2.5" style="stroke:#78A8D8;stroke-width:0.5;" width="207" x="50" y="196.69"/><text fill="#000000" font-family="sans-serif" font-size="16" font-weight="bold" lengthAdjust="spacing" textLength="41" x="60" y="221.5416">Data</text><text fill="#000000" font-family="sans-serif" font-size="16" font-weight="bold" lengthAdjust="spacing" textLength="6" x="101" y="221.5416"> </text><text fill="#000000" font-family="sans-serif" font-size="16" font-weight="bold" lengthAdjust="spacing" textLength="77" x="107" y="221.5416">Manager</text><text fill="#000000" font-family="sans-serif" font-size="16" font-weight="bold" lengthAdjust="spacing" textLength="6" x="184" y="221.5416"> </text><text fill="#000000" font-family="sans-serif" font-size="16" font-weight="bold" lengthAdjust="spacing" textLength="57" x="190" y="221.5416">Writer</text></g><!--entity d_sync--><g id="elem_d_sync"><path d="M400,223.38 L525,223.38 C530,223.38 530,247.005 530,247.005 C530,247.005 530,270.63 525,270.63 L400,270.63 C395,270.63 395,247.005 395,247.005 C395,247.005 395,223.38 400,223.38 " fill="#85BBF0" style="stroke:#78A8D8;stroke-width:0.5;"/><path d="M525,223.38 C520,223.38 520,247.005 520,247.005 C520,270.63 525,270.63 525,270.63 " fill="none" style="stroke:#78A8D8;stroke-width:0.5;"/><text fill="#000000" font-family="sans-serif" font-size="16" font-weight="bold" lengthAdjust="spacing" textLength="59" x="404.5" y="243.2316">Server</text><text fill="#000000" font-family="sans-serif" font-size="16" font-weight="bold" lengthAdjust="spacing" textLength="6" x="463.5" y="243.2316"> </text><text fill="#000000" font-family="sans-serif" font-size="16" font-weight="bold" lengthAdjust="spacing" textLength="41" x="469.5" y="243.2316">Data</text><text fill="#000000" font-family="sans-serif" font-size="16" font-weight="bold" lengthAdjust="spacing" textLength="115" x="400" y="261.8566">Synchronizer</text></g><!--entity prim--><g id="elem_prim"><rect fill="#85BBF0" height="38.625" rx="2.5" ry="2.5" style="stroke:#78A8D8;stroke-width:0.5;" width="143" x="701.5" y="264.69"/><text fill="#000000" font-family="sans-serif" font-size="16" font-weight="bold" lengthAdjust="spacing" textLength="68" x="711.5" y="289.5416">Primary</text><text fill="#000000" font-family="sans-serif" font-size="16" font-weight="bold" lengthAdjust="spacing" textLength="6" x="779.5" y="289.5416"> </text><text fill="#000000" font-family="sans-serif" font-size="16" font-weight="bold" lengthAdjust="spacing" textLength="49" x="785.5" y="289.5416">Index</text></g><!--entity back--><g id="elem_back"><rect fill="#85BBF0" height="38.625" rx="2.5" ry="2.5" style="stroke:#78A8D8;stroke-width:0.5;" width="123" x="711.5" y="190.69"/><text fill="#000000" font-family="sans-serif" font-size="16" font-weight="bold" lengthAdjust="spacing" textLength="65" x="721.5" y="215.5416">Backup</text><text fill="#000000" font-family="sans-serif" font-size="16" font-weight="bold" lengthAdjust="spacing" textLength="6" x="786.5" y="215.5416"> </text><text fill="#000000" font-family="sans-serif" font-size="16" font-weight="bold" lengthAdjust="spacing" textLength="32" x="792.5" y="215.5416">List</text></g><!--entity sec--><g id="elem_sec"><rect fill="#85BBF0" height="38.625" rx="2.5" ry="2.5" style="stroke:#78A8D8;stroke-width:0.5;" width="168" x="689" y="116.69"/><text fill="#000000" font-family="sans-serif" font-size="16" font-weight="bold" lengthAdjust="spacing" textLength="93" x="699" y="141.5416">Secondary</text><text fill="#000000" font-family="sans-serif" font-size="16" font-weight="bold" lengthAdjust="spacing" textLength="6" x="792" y="141.5416"> </text><text fill="#000000" font-family="sans-serif" font-size="16" font-weight="bold" lengthAdjust="spacing" textLength="49" x="798" y="141.5416">Index</text></g><!--link dm_read to d_sync--><g id="link_dm_read_d_sync"><path d="M260.15,275.2 C304.73,268.96 347.3574,262.9905 386.6674,257.4805 " fill="none" id="dm_read-to-d_sync" style="stroke:#666666;stroke-width:1.0;"/><polygon fill="#666666" points="394.59,256.37,386.251,254.5095,387.0839,260.4514,394.59,256.37" style="stroke:#666666;stroke-width:1.0;"/><text fill="#666666" font-family="sans-serif" font-size="12" font-weight="bold" lengthAdjust="spacing" textLength="33" x="293" y="258.0487">read</text><text fill="#666666" font-family="sans-serif" font-size="12" font-weight="bold" lengthAdjust="spacing" textLength="4" x="326" y="258.0487"> </text><text fill="#666666" font-family="sans-serif" font-size="12" font-weight="bold" lengthAdjust="spacing" textLength="32" x="330" y="258.0487">sync</text></g><!--link dm_write to d_sync--><g id="link_dm_write_d_sync"><path d="M257.15,226.37 C302.47,230.94 346.5005,235.3861 386.7005,239.4461 " fill="none" id="dm_write-to-d_sync" style="stroke:#666666;stroke-width:1.0;"/><polygon fill="#666666" points="394.66,240.25,387.0019,236.4613,386.399,242.4309,394.66,240.25" style="stroke:#666666;stroke-width:1.0;"/><text fill="#666666" font-family="sans-serif" font-size="12" font-weight="bold" lengthAdjust="spacing" textLength="37" x="291" y="227.7087">write</text><text fill="#666666" font-family="sans-serif" font-size="12" font-weight="bold" lengthAdjust="spacing" textLength="4" x="328" y="227.7087"> </text><text fill="#666666" font-family="sans-serif" font-size="12" font-weight="bold" lengthAdjust="spacing" textLength="32" x="332" y="227.7087">sync</text></g><!--link d_sync to d_persist--><g id="link_d_sync_d_persist"><path d="M498.78,270.89 C517.04,282.44 540.05,295.76 562,305 C618.58,328.83 680.1055,343.7511 723.2255,352.6611 " fill="none" id="d_sync-to-d_persist" style="stroke:#666666;stroke-width:1.0;"/><polygon fill="#666666" points="731.06,354.28,723.8326,349.7232,722.6184,355.5991,731.06,354.28" style="stroke:#666666;stroke-width:1.0;"/><text fill="#666666" font-family="sans-serif" font-size="12" font-weight="bold" lengthAdjust="spacing" textLength="38" x="563" y="302.1387">store</text><text fill="#666666" font-family="sans-serif" font-size="12" font-weight="bold" lengthAdjust="spacing" textLength="4" x="601" y="302.1387"> </text><text fill="#666666" font-family="sans-serif" font-size="12" font-weight="bold" lengthAdjust="spacing" textLength="18" x="605" y="302.1387">on</text><text fill="#666666" font-family="sans-serif" font-size="12" font-weight="bold" lengthAdjust="spacing" textLength="4" x="623" y="302.1387"> </text><text fill="#666666" font-family="sans-serif" font-size="12" font-weight="bold" lengthAdjust="spacing" textLength="29" x="627" y="302.1387">disk</text></g><!--link d_sync to prim--><g id="link_d_sync_prim"><path d="M530.4,266.63 C540.9,269.14 551.69,271.39 562,273 C607.99,280.2 652.2622,282.7622 693.1522,283.7222 " fill="none" id="d_sync-to-prim" style="stroke:#666666;stroke-width:1.0;"/><polygon fill="#666666" points="701.15,283.91,693.2226,280.7231,693.0818,286.7214,701.15,283.91" style="stroke:#666666;stroke-width:1.0;"/><text fill="#666666" font-family="sans-serif" font-size="12" font-weight="bold" lengthAdjust="spacing" textLength="51" x="563" y="270.1387">update</text><text fill="#666666" font-family="sans-serif" font-size="12" font-weight="bold" lengthAdjust="spacing" textLength="4" x="614" y="270.1387"> </text><text fill="#666666" font-family="sans-serif" font-size="12" font-weight="bold" lengthAdjust="spacing" textLength="38" x="618" y="270.1387">index</text></g><!--link d_sync to back--><g id="link_d_sync_back"><path d="M530.44,238.97 C584.22,232.52 651.177,224.493 703.267,218.243 " fill="none" id="d_sync-to-back" style="stroke:#666666;stroke-width:1.0;"/><polygon fill="#666666" points="711.21,217.29,702.9096,215.2644,703.6244,221.2217,711.21,217.29" style="stroke:#666666;stroke-width:1.0;"/><text fill="#666666" font-family="sans-serif" font-size="12" font-weight="bold" lengthAdjust="spacing" textLength="51" x="571" y="221.2387">update</text><text fill="#666666" font-family="sans-serif" font-size="12" font-weight="bold" lengthAdjust="spacing" textLength="4" x="622" y="221.2387"> </text><text fill="#666666" font-family="sans-serif" font-size="12" font-weight="bold" lengthAdjust="spacing" textLength="22" x="626" y="221.2387">list</text></g><!--link d_sync to sec--><g id="link_d_sync_sec"><path d="M511.53,222.97 C527.4,215.46 545.27,207.46 562,201 C607.04,183.61 651.1542,169.7499 692.0442,157.9399 " fill="none" id="d_sync-to-sec" style="stroke:#666666;stroke-width:1.0;"/><polygon fill="#666666" points="699.73,155.72,691.2117,155.0577,692.8766,160.822,699.73,155.72" style="stroke:#666666;stroke-width:1.0;"/><text fill="#666666" font-family="sans-serif" font-size="12" font-weight="bold" lengthAdjust="spacing" textLength="51" x="563" y="166.8087">update</text><text fill="#666666" font-family="sans-serif" font-size="12" font-weight="bold" lengthAdjust="spacing" textLength="4" x="614" y="166.8087"> </text><text fill="#666666" font-family="sans-serif" font-size="12" font-weight="bold" lengthAdjust="spacing" textLength="38" x="618" y="166.8087">index</text></g><!--SRC=[TL9RJzim57xtht2ZFHI9nh3oXBP98y2erC5MYYQU8ZS-enQ9RVbIA1F_VIU9Kx8kv25splaknryyageeWm3wAJjXsKcUwSfe1Sf_8MJqOPRTNDyjvlGpJTRU6tVAcELFwOFqwx0A3coXbKTmMkYA-M2ui5DcIgvygCg9nExaDo8cpbZfmR7DD3rAZrZTS0aPTTwT3qEPIglK87kWAs3JC9a7Mqd5onP8vb_lR-wM-VpYSfalPj-kbkC3GZBqvLA1pSzqK8BRxTWT7zBa5km6R790_n2Apn3i8yBEkUTDq-go1EjsX9OKGngBAhV0HKVupXL_04iNMAjDXXbFTHZxb5zrSP3oCq20iSZTLXMx0z26V8kbjTLAlZH7Qfz6uRLvBw1y6t6dK7_IUX_T8YgErS5eqXGw8FbdflCL3cGm5-ayAlveTtszgD93qSHvRO5gHOLqZs-Q__-1QPVEJ0buXlVInrjLrUwu8Aq5rp4CG5UyU4Je6Ix1q7apx23GGHioNZJH4zqFDHulJX2Cu1YLx67xg6WUKULmKgtndX9v_Gi0]--></g></svg>