<svg xmlns="http://www.w3.org/2000/svg" xmlns:xlink="http://www.w3.org/1999/xlink" contentStyleType="text/css" height="275px" preserveAspectRatio="none" style="width:1331px;height:275px;background:#FFFFFF;" version="1.1" viewBox="0 0 1331 275" width="1331px" zoomAndPan="magnify"><defs/><g><!--cluster s1--><g id="cluster_s1"><rect fill="none" height="262" rx="2.5" ry="2.5" style="stroke:#444444;stroke-width:1.0;stroke-dasharray:7.0,7.0;" width="1318" x="7" y="7"/><text fill="#444444" font-family="sans-serif" font-size="16" font-weight="bold" lengthAdjust="spacing" textLength="59" x="636.5" y="23.8516">Server</text><text fill="#444444" font-family="sans-serif" font-size="12" font-weight="bold" lengthAdjust="spacing" textLength="80" x="626" y="38.7637">[Container]</text></g><!--cluster s2--><g id="cluster_s2"><rect fill="none" height="179" rx="2.5" ry="2.5" style="stroke:#444444;stroke-width:1.0;stroke-dasharray:7.0,7.0;" width="515" x="31" y="66"/><text fill="#444444" font-family="sans-serif" font-size="16" font-weight="bold" lengthAdjust="spacing" textLength="145" x="216" y="82.8516">Data Controllers</text><text fill="#444444" font-family="sans-serif" font-size="12" font-weight="bold" lengthAdjust="spacing" textLength="80" x="248.5" y="97.7637">[Container]</text></g><!--cluster s4--><g id="cluster_s4"><rect fill="none" height="172" rx="2.5" ry="2.5" style="stroke:#444444;stroke-width:1.0;stroke-dasharray:7.0,7.0;" width="629" x="672" y="69"/><text fill="#444444" font-family="sans-serif" font-size="16" font-weight="bold" lengthAdjust="spacing" textLength="186" x="893.5" y="85.8516">External Consistency</text><text fill="#444444" font-family="sans-serif" font-size="12" font-weight="bold" lengthAdjust="spacing" textLength="80" x="946.5" y="100.7637">[Container]</text></g><!--entity dm_read--><g id="elem_dm_read"><rect fill="#85BBF0" height="38.625" rx="2.5" ry="2.5" style="stroke:#78A8D8;stroke-width:0.5;" width="213" x="47" y="190.69"/><text fill="#000000" font-family="sans-serif" font-size="16" font-weight="bold" lengthAdjust="spacing" textLength="41" x="57" y="215.5416">Data</text><text fill="#000000" font-family="sans-serif" font-size="16" font-weight="bold" lengthAdjust="spacing" textLength="6" x="98" y="215.5416"> </text><text fill="#000000" font-family="sans-serif" font-size="16" font-weight="bold" lengthAdjust="spacing" textLength="77" x="104" y="215.5416">Manager</text><text fill="#000000" font-family="sans-serif" font-size="16" font-weight="bold" lengthAdjust="spacing" textLength="6" x="181" y="215.5416"> </text><text fill="#000000" font-family="sans-serif" font-size="16" font-weight="bold" lengthAdjust="spacing" textLength="63" x="187" y="215.5416">Reader</text></g><!--entity dm_write--><g id="elem_dm_write"><rect fill="#85BBF0" height="38.625" rx="2.5" ry="2.5" style="stroke:#78A8D8;stroke-width:0.5;" width="207" x="50" y="116.69"/><text fill="#000000" font-family="sans-serif" font-size="16" font-weight="bold" lengthAdjust="spacing" textLength="41" x="60" y="141.5416">Data</text><text fill="#000000" font-family="sans-serif" font-size="16" font-weight="bold" lengthAdjust="spacing" textLength="6" x="101" y="141.5416"> </text><text fill="#000000" font-family="sans-serif" font-size="16" font-weight="bold" lengthAdjust="spacing" textLength="77" x="107" y="141.5416">Manager</text><text fill="#000000" font-family="sans-serif" font-size="16" font-weight="bold" lengthAdjust="spacing" textLength="6" x="184" y="141.5416"> </text><text fill="#000000" font-family="sans-serif" font-size="16" font-weight="bold" lengthAdjust="spacing" textLength="57" x="190" y="141.5416">Writer</text></g><!--entity d_sync--><g id="elem_d_sync"><path d="M400,170.38 L525,170.38 C530,170.38 530,194.005 530,194.005 C530,194.005 530,217.63 525,217.63 L400,217.63 C395,217.63 395,194.005 395,194.005 C395,194.005 395,170.38 400,170.38 " fill="#85BBF0" style="stroke:#78A8D8;stroke-width:0.5;"/><path d="M525,170.38 C520,170.38 520,194.005 520,194.005 C520,217.63 525,217.63 525,217.63 " fill="none" style="stroke:#78A8D8;stroke-width:0.5;"/><text fill="#000000" font-family="sans-serif" font-size="16" font-weight="bold" lengthAdjust="spacing" textLength="59" x="404.5" y="190.2316">Server</text><text fill="#000000" font-family="sans-serif" font-size="16" font-weight="bold" lengthAdjust="spacing" textLength="6" x="463.5" y="190.2316"> </text><text fill="#000000" font-family="sans-serif" font-size="16" font-weight="bold" lengthAdjust="spacing" textLength="41" x="469.5" y="190.2316">Data</text><text fill="#000000" font-family="sans-serif" font-size="16" font-weight="bold" lengthAdjust="spacing" textLength="115" x="400" y="208.8566">Synchronizer</text></g><!--entity ext_sync--><g id="elem_ext_sync"><rect fill="#85BBF0" height="57.25" rx="2.5" ry="2.5" style="stroke:#78A8D8;stroke-width:0.5;" width="206" x="688" y="160.37"/><text fill="#000000" font-family="sans-serif" font-size="16" font-weight="bold" lengthAdjust="spacing" textLength="72" x="698" y="185.2216">External</text><text fill="#000000" font-family="sans-serif" font-size="16" font-weight="bold" lengthAdjust="spacing" textLength="6" x="770" y="185.2216"> </text><text fill="#000000" font-family="sans-serif" font-size="16" font-weight="bold" lengthAdjust="spacing" textLength="108" x="776" y="185.2216">Consistency</text><text fill="#000000" font-family="sans-serif" font-size="16" font-weight="bold" lengthAdjust="spacing" textLength="115" x="733.5" y="203.8466">Synchronizer</text></g><!--entity s_con_man--><g id="elem_s_con_man"><rect fill="#85BBF0" height="57.25" rx="2.5" ry="2.5" style="stroke:#78A8D8;stroke-width:0.5;" width="185" x="1100" y="141.37"/><text fill="#000000" font-family="sans-serif" font-size="16" font-weight="bold" lengthAdjust="spacing" textLength="59" x="1110" y="166.2216">Server</text><text fill="#000000" font-family="sans-serif" font-size="16" font-weight="bold" lengthAdjust="spacing" textLength="6" x="1169" y="166.2216"> </text><text fill="#000000" font-family="sans-serif" font-size="16" font-weight="bold" lengthAdjust="spacing" textLength="100" x="1175" y="166.2216">Connection</text><text fill="#000000" font-family="sans-serif" font-size="16" font-weight="bold" lengthAdjust="spacing" textLength="77" x="1154" y="184.8466">Manager</text></g><!--link dm_read to d_sync--><g id="link_dm_read_d_sync"><path d="M260.15,204.49 C304.73,202.17 347.2909,199.9566 386.6009,197.9066 " fill="none" id="dm_read-to-d_sync" style="stroke:#666666;stroke-width:1.0;"/><polygon fill="#666666" points="394.59,197.49,386.4446,194.9107,386.7571,200.9026,394.59,197.49" style="stroke:#666666;stroke-width:1.0;"/><text fill="#666666" font-family="sans-serif" font-size="12" font-weight="bold" lengthAdjust="spacing" textLength="33" x="293" y="196.3187">read</text><text fill="#666666" font-family="sans-serif" font-size="12" font-weight="bold" lengthAdjust="spacing" textLength="4" x="326" y="196.3187"> </text><text fill="#666666" font-family="sans-serif" font-size="12" font-weight="bold" lengthAdjust="spacing" textLength="32" x="330" y="196.3187">sync</text></g><!--link dm_write to d_sync--><g id="link_dm_write_d_sync"><path d="M257.15,155.39 C302.47,163.96 346.5989,172.2958 386.7989,179.8858 " fill="none" id="dm_write-to-d_sync" style="stroke:#666666;stroke-width:1.0;"/><polygon fill="#666666" points="394.66,181.37,387.3555,176.9379,386.2423,182.8337,394.66,181.37" style="stroke:#666666;stroke-width:1.0;"/><text fill="#666666" font-family="sans-serif" font-size="12" font-weight="bold" lengthAdjust="spacing" textLength="37" x="291" y="160.3987">write</text><text fill="#666666" font-family="sans-serif" font-size="12" font-weight="bold" lengthAdjust="spacing" textLength="4" x="328" y="160.3987"> </text><text fill="#666666" font-family="sans-serif" font-size="12" font-weight="bold" lengthAdjust="spacing" textLength="32" x="332" y="160.3987">sync</text></g><!--link ext_sync to dm_write--><g id="link_ext_sync_dm_write"><path d="M687.59,172.85 C676.92,171.2 666.24,169.56 656,168 C610.7,161.12 599.56,157.91 554,153 C470.29,143.98 449.12,143.69 365,140 C329.94,138.46 299.5788,137.6577 265.3188,137.0677 " fill="none" id="ext_sync-to-dm_write" style="stroke:#666666;stroke-width:1.0;"/><polygon fill="#666666" points="257.32,136.93,265.2672,140.0673,265.3705,134.0682,257.32,136.93" style="stroke:#666666;stroke-width:1.0;"/><text fill="#666666" font-family="sans-serif" font-size="12" font-weight="bold" lengthAdjust="spacing" textLength="30" x="427" y="124.4587">new</text><text fill="#666666" font-family="sans-serif" font-size="12" font-weight="bold" lengthAdjust="spacing" textLength="4" x="457" y="124.4587"> </text><text fill="#666666" font-family="sans-serif" font-size="12" font-weight="bold" lengthAdjust="spacing" textLength="37" x="461" y="124.4587">write</text><text fill="#666666" font-family="sans-serif" font-size="12" font-weight="bold" lengthAdjust="spacing" textLength="81" x="422" y="138.4274">notification</text></g><!--link d_sync to ext_sync--><g id="link_d_sync_ext_sync"><path d="M530.36,192.98 C575.6,192.28 628.2309,191.4716 679.5309,190.6916 " fill="none" id="d_sync-to-ext_sync" style="stroke:#666666;stroke-width:1.0;"/><polygon fill="#666666" points="687.53,190.57,679.4853,187.692,679.5765,193.6913,687.53,190.57" style="stroke:#666666;stroke-width:1.0;"/><text fill="#666666" font-family="sans-serif" font-size="12" font-weight="bold" lengthAdjust="spacing" textLength="51" x="563" y="188.1887">update</text><text fill="#666666" font-family="sans-serif" font-size="12" font-weight="bold" lengthAdjust="spacing" textLength="4" x="614" y="188.1887"> </text><text fill="#666666" font-family="sans-serif" font-size="12" font-weight="bold" lengthAdjust="spacing" textLength="37" x="618" y="188.1887">write</text></g><!--link ext_sync to s_con_man--><g id="link_ext_sync_s_con_man"><path d="M894.2,195.73 C946.83,197.86 1011.97,198.44 1070,193 C1079.62,192.1 1081.7019,192.0093 1091.6419,190.4893 " fill="none" id="ext_sync-to-s_con_man" style="stroke:#666666;stroke-width:1.0;"/><polygon fill="#666666" points="1099.55,189.28,1091.1884,187.5238,1092.0954,193.4548,1099.55,189.28" style="stroke:#666666;stroke-width:1.0;"/><text fill="#666666" font-family="sans-serif" font-size="12" font-weight="bold" lengthAdjust="spacing" textLength="41" x="951" y="190.1387">notify</text><text fill="#666666" font-family="sans-serif" font-size="12" font-weight="bold" lengthAdjust="spacing" textLength="4" x="992" y="190.1387"> </text><text fill="#666666" font-family="sans-serif" font-size="12" font-weight="bold" lengthAdjust="spacing" textLength="47" x="996" y="190.1387">others</text></g><!--link s_con_man to ext_sync--><g id="link_s_con_man_ext_sync"><path d="M1099.8,169.15 C1048.12,169.23 982.4,170.25 924,174 C914.33,174.62 912.2452,174.6943 902.2052,175.6343 " fill="none" id="s_con_man-to-ext_sync" style="stroke:#666666;stroke-width:1.0;"/><polygon fill="#666666" points="894.24,176.38,902.4848,178.6212,901.9255,172.6473,894.24,176.38" style="stroke:#666666;stroke-width:1.0;"/><text fill="#666666" font-family="sans-serif" font-size="12" font-weight="bold" lengthAdjust="spacing" textLength="51" x="925" y="166.4387">recieve</text><text fill="#666666" font-family="sans-serif" font-size="12" font-weight="bold" lengthAdjust="spacing" textLength="4" x="976" y="166.4387"> </text><text fill="#666666" font-family="sans-serif" font-size="12" font-weight="bold" lengthAdjust="spacing" textLength="89" x="980" y="166.4387">notifications</text></g><!--SRC=[TL9TJzj047o_Nt6nU0XIuwCbJrL1QWrjaL9GGr35atNO2pd9thFk8o6j-E_iNUpOROqVB7jtPdPsxYOAYygNm3zbSv7DyqpNZKP0TyxOvEWgkxc-Moxu6K_MpZNsen16RjCdvTR-mLimXKP7uBJGjN2-aQKv5KqbqVcwcYdgpXu9CREDKGwis9oc9-c920sRi4atkviZIARMc3R47kcMi8bCuS3K2cMr1xB5v_kRkrM-kFowofTNtxwlfiUCPJHNAWIJVz4UIsbsK_l-7KzkmMp09CVy3-FqZC4-4En2EXcRHbSL67iWx4bjIDEopWt8iYFya2YVmF0brSAGSSOsXF4lvLSeZb9-Ul0mBNExm-Am08_aMogjZKRrEwwqVwB2ItmleUej7XJ2Bm_VxRGMrThgO3o9XI7mpSJcf7hvJFxfK0B0AalNejYzaHeykyxB6Ek_jKOaR4ut8QybzecG0aBXbCOkrDPsdqK_U70C25k-NnMrKu-ga45Zc4tB6TZsJIc946a3P8yO-ekoEwxTEbwa0tg06KWRA1Hi_ZOJM8ozl080]--></g></svg>